<svg id="Frame49046" width="72" height="72" viewBox="0 0 72 72" fill="none" xmlns="http://www.w3.org/2000/svg" style="max-width: 100%; max-height: 100%;">
<rect width="72" height="72" fill="none" stroke-dasharray="0,0,0,0,0,288"><animate attributeType="XML" attributeName="stroke-dasharray" repeatCount="indefinite" dur="4.166666666666666s" values="0,0,0,0,0,288;
          0,0,0,67.19999999999999,86.39999999999999,134.39999999999998;
          0,0,96,0,192,288;
          0,0,192,0,96,288;
          0,0,240,48,0,0;
          0,288,0,96,0,288" keyTimes="0; 0.16666666666666666; 0.3333; 0.6666; 0.8333; 1" begin="1.2824932660076556s"></animate></rect>
<mask id="mask0_73_83" style="mask-type:alpha" maskUnits="userSpaceOnUse" x="11" y="4" width="50" height="49">
<path d="M23.8254 49.8445C20.1562 47.7584 17.2565 44.847 15.1243 41.1089C12.9919 37.372 11.9258 33.1644 11.9258 28.4872C11.9258 23.8099 12.9919 19.6034 15.1243 15.8654C17.2565 12.1285 20.1562 9.21706 23.8254 7.12988C27.4935 5.04375 31.5517 4.00024 36 4.00024C40.4936 4.00024 44.5743 5.04375 48.2435 7.12988C51.9116 9.21706 54.8004 12.1167 56.9102 15.8309C59.0188 19.5453 60.0742 23.7648 60.0742 28.4872C60.0742 33.2106 59.0188 37.429 56.9102 41.1432C54.8004 44.8576 51.9116 47.7584 48.2435 49.8445C44.5743 51.9317 40.4936 52.9741 36 52.9741C31.5517 52.9741 27.4935 51.9317 23.8254 49.8445ZM45.045 45.2016C47.7276 43.6432 49.8362 41.4184 51.3731 38.5295C52.9089 35.6407 53.6773 32.2939 53.6773 28.4872C53.6773 24.6353 52.9089 21.2767 51.3731 18.4103C49.8362 15.5451 47.7383 13.3322 45.0795 11.7728C42.4195 10.2144 39.3929 9.43407 36 9.43407C32.606 9.43407 29.5795 10.2144 26.9207 11.7728C24.2606 13.3322 22.1627 15.5451 20.6268 18.4103C19.0901 21.2767 18.3227 24.6353 18.3227 28.4872C18.3227 32.2939 19.0901 35.6407 20.6268 38.5295C22.1627 41.4184 24.2724 43.6432 26.955 45.2016C29.6375 46.7609 32.6521 47.5401 36 47.5401C39.3468 47.5401 42.3625 46.7609 45.045 45.2016Z" fill="#181515" stroke-dasharray="0,0,0,0,0,270.32257080078125"><animate attributeType="XML" attributeName="stroke-dasharray" repeatCount="indefinite" dur="4.166666666666666s" values="0,0,0,0,0,270.32257080078125;
          0,0,0,63.07526652018228,81.09677124023438,126.15053304036456;
          0,0,90.10752360026042,0,180.21504720052084,270.32257080078125;
          0,0,180.21504720052084,0,90.10752360026042,270.32257080078125;
          0,0,225.26880900065103,45.05376180013021,0,0;
          0,270.32257080078125,0,90.10752360026042,0,270.32257080078125" keyTimes="0; 0.16666666666666666; 0.3333; 0.6666; 0.8333; 1" begin="0.38667247208124994s"></animate></path>
</mask>
<g mask="url(#mask0_73_83)">
<path d="M17.606 39.6088C19.4848 42.9025 22.0398 45.4679 25.2729 47.3061C28.505 49.1452 32.0808 50.0638 36.0005 50.0638C39.96 50.0638 43.5557 49.1452 46.7888 47.3061C50.021 45.4679 52.5664 42.912 54.4254 39.639C56.2834 36.3663 57.2134 32.6493 57.2134 28.4872C57.2134 24.3261 56.2834 20.6081 54.4254 17.3352C52.5664 14.0624 50.021 11.5074 46.7888 9.66831C43.5557 7.83012 39.96 6.91064 36.0005 6.91064C32.0808 6.91064 28.505 7.83012 25.2729 9.66831C22.0398 11.5074 19.4848 14.0728 17.606 17.3656C15.727 20.6593 14.7876 24.3658 14.7876 28.4872C14.7876 32.6085 15.727 36.3161 17.606 39.6088Z" stroke="#FFB100" stroke-width="11" stroke-dasharray="0,0,0,0,0,135.3111572265625"><animate attributeType="XML" attributeName="stroke-dasharray" repeatCount="indefinite" dur="4.166666666666666s" values="0,0,0,0,0,135.3111572265625;
          0,0,0,31.57260335286458,40.59334716796875,63.14520670572916;
          0,0,45.103719075520836,0,90.20743815104167,135.3111572265625;
          0,0,90.20743815104167,0,45.103719075520836,135.3111572265625;
          0,0,112.75929768880208,22.551859537760418,0,0;
          0,135.3111572265625,0,45.103719075520836,0,135.3111572265625" keyTimes="0; 0.16666666666666666; 0.3333; 0.6666; 0.8333; 1" begin="0.017871401430418703s"></animate></path>
<path d="M17.606 39.6088C19.4848 42.9025 22.0398 45.4679 25.2729 47.3061C28.505 49.1452 32.0808 50.0638 36.0005 50.0638C39.96 50.0638 43.5557 49.1452 46.7888 47.3061C50.021 45.4679 52.5664 42.912 54.4254 39.639C56.2834 36.3663 57.2134 32.6493 57.2134 28.4872C57.2134 24.3261 56.2834 20.6081 54.4254 17.3352C52.5664 14.0624 50.021 11.5074 46.7888 9.66831C43.5557 7.83012 39.96 6.91064 36.0005 6.91064C32.0808 6.91064 28.505 7.83012 25.2729 9.66831C22.0398 11.5074 19.4848 14.0728 17.606 17.3656C15.727 20.6593 14.7876 24.3658 14.7876 28.4872C14.7876 32.6085 15.727 36.3161 17.606 39.6088Z" stroke="#03C3D6" stroke-width="11" stroke-dasharray="0,0,0,0,0,135.3111572265625"><animate attributeType="XML" attributeName="stroke-dasharray" repeatCount="indefinite" dur="4.166666666666666s" values="0,0,0,0,0,135.3111572265625;
          0,0,0,31.57260335286458,40.59334716796875,63.14520670572916;
          0,0,45.103719075520836,0,90.20743815104167,135.3111572265625;
          0,0,90.20743815104167,0,45.103719075520836,135.3111572265625;
          0,0,112.75929768880208,22.551859537760418,0,0;
          0,135.3111572265625,0,45.103719075520836,0,135.3111572265625" keyTimes="0; 0.16666666666666666; 0.3333; 0.6666; 0.8333; 1" begin="1.2514979699089421s"></animate></path>
<path d="M17.606 39.6088C19.4848 42.9025 22.0398 45.4679 25.2729 47.3061C28.505 49.1452 32.0808 50.0638 36.0005 50.0638C39.96 50.0638 43.5557 49.1452 46.7888 47.3061C50.021 45.4679 52.5664 42.912 54.4254 39.639C56.2834 36.3663 57.2134 32.6493 57.2134 28.4872C57.2134 24.3261 56.2834 20.6081 54.4254 17.3352C52.5664 14.0624 50.021 11.5074 46.7888 9.66831C43.5557 7.83012 39.96 6.91064 36.0005 6.91064C32.0808 6.91064 28.505 7.83012 25.2729 9.66831C22.0398 11.5074 19.4848 14.0728 17.606 17.3656C15.727 20.6593 14.7876 24.3658 14.7876 28.4872C14.7876 32.6085 15.727 36.3161 17.606 39.6088Z" stroke="#181515" stroke-width="11" stroke-dasharray="0,0,0,0,0,135.3111572265625"><animate attributeType="XML" attributeName="stroke-dasharray" repeatCount="indefinite" dur="4.166666666666666s" values="0,0,0,0,0,135.3111572265625;
          0,0,0,31.57260335286458,40.59334716796875,63.14520670572916;
          0,0,45.103719075520836,0,90.20743815104167,135.3111572265625;
          0,0,90.20743815104167,0,45.103719075520836,135.3111572265625;
          0,0,112.75929768880208,22.551859537760418,0,0;
          0,135.3111572265625,0,45.103719075520836,0,135.3111572265625" keyTimes="0; 0.16666666666666666; 0.3333; 0.6666; 0.8333; 1" begin="0.9600242529245446s"></animate></path>
</g>
<mask id="mask1_73_83" style="mask-type:alpha" maskUnits="userSpaceOnUse" x="14" y="57" width="11" height="12">
<path d="M19.0752 68.0002C21.8679 68.0002 24.1318 65.7363 24.1318 62.9436C24.1318 60.1509 21.8679 57.887 19.0752 57.887C16.2825 57.887 14.0186 60.1509 14.0186 62.9436C14.0186 65.7363 16.2825 68.0002 19.0752 68.0002Z" fill="#181515" stroke-dasharray="0,0,0,0,0,31.77608871459961"><animate attributeType="XML" attributeName="stroke-dasharray" repeatCount="indefinite" dur="4.166666666666666s" values="0,0,0,0,0,31.77608871459961;
          0,0,0,7.414420700073242,9.532826614379882,14.828841400146484;
          0,0,10.592029571533203,0,21.184059143066406,31.77608871459961;
          0,0,21.184059143066406,0,10.592029571533203,31.77608871459961;
          0,0,26.480073928833008,5.296014785766602,0,0;
          0,31.77608871459961,0,10.592029571533203,0,31.77608871459961" keyTimes="0; 0.16666666666666666; 0.3333; 0.6666; 0.8333; 1" begin="0.1592290555581506s"></animate></path>
</mask>
<g mask="url(#mask1_73_83)">
<line x1="19.0845" y1="41.7024" x2="19.0845" y2="85.4629" stroke="#181515" stroke-width="11" stroke-dasharray="0,0,0,0,0,43.760498046875"><animate attributeType="XML" attributeName="stroke-dasharray" repeatCount="indefinite" dur="4.166666666666666s" values="0,0,0,0,0,43.760498046875;
          0,0,0,10.210782877604165,13.1281494140625,20.42156575520833;
          0,0,14.586832682291666,0,29.173665364583332,43.760498046875;
          0,0,29.173665364583332,0,14.586832682291666,43.760498046875;
          0,0,36.467081705729164,7.293416341145833,0,0;
          0,43.760498046875,0,14.586832682291666,0,43.760498046875" keyTimes="0; 0.16666666666666666; 0.3333; 0.6666; 0.8333; 1" begin="1.3159969974476342s"></animate></line>
</g>
<mask id="mask2_73_83" style="mask-type:alpha" maskUnits="userSpaceOnUse" x="30" y="57" width="12" height="12">
<path d="M36 68.0002C38.7927 68.0002 41.0566 65.7363 41.0566 62.9436C41.0566 60.1509 38.7927 57.887 36 57.887C33.2073 57.887 30.9434 60.1509 30.9434 62.9436C30.9434 65.7363 33.2073 68.0002 36 68.0002Z" fill="#03C3D6" stroke-dasharray="0,0,0,0,0,31.776081085205078"><animate attributeType="XML" attributeName="stroke-dasharray" repeatCount="indefinite" dur="4.166666666666666s" values="0,0,0,0,0,31.776081085205078;
          0,0,0,7.414418919881184,9.532824325561522,14.828837839762368;
          0,0,10.592027028401693,0,21.184054056803387,31.776081085205078;
          0,0,21.184054056803387,0,10.592027028401693,31.776081085205078;
          0,0,26.48006757100423,5.296013514200847,0,0;
          0,31.776081085205078,0,10.592027028401693,0,31.776081085205078" keyTimes="0; 0.16666666666666666; 0.3333; 0.6666; 0.8333; 1" begin="1.3812059040189564s"></animate></path>
</mask>
<g mask="url(#mask2_73_83)">
<line x1="35.9526" y1="41.7024" x2="35.9526" y2="85.4629" stroke="#03C3D6" stroke-width="11" stroke-dasharray="0,0,0,0,0,43.760498046875"><animate attributeType="XML" attributeName="stroke-dasharray" repeatCount="indefinite" dur="4.166666666666666s" values="0,0,0,0,0,43.760498046875;
          0,0,0,10.210782877604165,13.1281494140625,20.42156575520833;
          0,0,14.586832682291666,0,29.173665364583332,43.760498046875;
          0,0,29.173665364583332,0,14.586832682291666,43.760498046875;
          0,0,36.467081705729164,7.293416341145833,0,0;
          0,43.760498046875,0,14.586832682291666,0,43.760498046875" keyTimes="0; 0.16666666666666666; 0.3333; 0.6666; 0.8333; 1" begin="1.0294958877555216s"></animate></line>
</g>
<mask id="mask3_73_83" style="mask-type:alpha" maskUnits="userSpaceOnUse" x="47" y="57" width="11" height="12">
<path d="M52.9248 68.0002C55.7175 68.0002 57.9814 65.7363 57.9814 62.9436C57.9814 60.1509 55.7175 57.887 52.9248 57.887C50.1321 57.887 47.8682 60.1509 47.8682 62.9436C47.8682 65.7363 50.1321 68.0002 52.9248 68.0002Z" fill="#FFB100" stroke-dasharray="0,0,0,0,0,31.77608871459961"><animate attributeType="XML" attributeName="stroke-dasharray" repeatCount="indefinite" dur="4.166666666666666s" values="0,0,0,0,0,31.77608871459961;
          0,0,0,7.414420700073242,9.532826614379882,14.828841400146484;
          0,0,10.592029571533203,0,21.184059143066406,31.77608871459961;
          0,0,21.184059143066406,0,10.592029571533203,31.77608871459961;
          0,0,26.480073928833008,5.296014785766602,0,0;
          0,31.77608871459961,0,10.592029571533203,0,31.77608871459961" keyTimes="0; 0.16666666666666666; 0.3333; 0.6666; 0.8333; 1" begin="1.0179641090209237s"></animate></path>
</mask>
<g mask="url(#mask3_73_83)">
<line x1="52.6582" y1="41.7024" x2="52.6582" y2="85.4629" stroke="#FFB100" stroke-width="11" stroke-dasharray="0,0,0,0,0,43.760498046875"><animate attributeType="XML" attributeName="stroke-dasharray" repeatCount="indefinite" dur="4.166666666666666s" values="0,0,0,0,0,43.760498046875;
          0,0,0,10.210782877604165,13.1281494140625,20.42156575520833;
          0,0,14.586832682291666,0,29.173665364583332,43.760498046875;
          0,0,29.173665364583332,0,14.586832682291666,43.760498046875;
          0,0,36.467081705729164,7.293416341145833,0,0;
          0,43.760498046875,0,14.586832682291666,0,43.760498046875" keyTimes="0; 0.16666666666666666; 0.3333; 0.6666; 0.8333; 1" begin="0.5573887141500006s"></animate></line>
</g>
</svg>